PathFileType	4	(X/Y/Z)	C:\Users\u0145647\OneDrive - KU Leuven\KU Leuven\c3d2osim\CP16\T0\Data\Processed\ViconC3D\CP16_T0_08_gapFilled.trc
DataRate	CameraRate	NumFrames	NumMarkers	Units	OrigDataRate	OrigDataStartFrame	OrigNumFrames
100.000000	100.000000	11	47	mm	100.000000	274	729
Frame#	Time	C7			T10			CLAV			STRN			LSHO			RSHO			RBAK			LASI			RASI			LPSI			RPSI			LLAT			RLAT			LF1			LF2			LF3			LTHI			LKNE			LMEK			RF1			RF2			RF3			RTHI			RKNE			RMEK			LT1			LT2			LT3			LTIB			LMM			LANK			RT1			RT2			RT3			RTIB			RANK			RMM			LHEE			LSTL			LLCA			LTOE			LCM5			RHEE			RSTL			RLCA			RTOE			RCM5
		X1	Y1	Z1	X2	Y2	Z2	X3	Y3	Z3	X4	Y4	Z4	X5	Y5	Z5	X6	Y6	Z6	X7	Y7	Z7	X8	Y8	Z8	X9	Y9	Z9	X10	Y10	Z10	X11	Y11	Z11	X12	Y12	Z12	X13	Y13	Z13	X14	Y14	Z14	X15	Y15	Z15	X16	Y16	Z16	X17	Y17	Z17	X18	Y18	Z18	X19	Y19	Z19	X20	Y20	Z20	X21	Y21	Z21	X22	Y22	Z22	X23	Y23	Z23	X24	Y24	Z24	X25	Y25	Z25	X26	Y26	Z26	X27	Y27	Z27	X28	Y28	Z28	X29	Y29	Z29	X30	Y30	Z30	X31	Y31	Z31	X32	Y32	Z32	X33	Y33	Z33	X34	Y34	Z34	X35	Y35	Z35	X36	Y36	Z36	X37	Y37	Z37	X38	Y38	Z38	X39	Y39	Z39	X40	Y40	Z40	X41	Y41	Z41	X42	Y42	Z42	X43	Y43	Z43	X44	Y44	Z44	X45	Y45	Z45	X46	Y46	Z46	X47	Y47	Z47

274	2.73	-410.79	1462.3	-221.42	-459.42	1187	-276.87	-280.13	1375.9	-216.66	-248.45	1206.6	-242.19	-332.88	1416.3	-402.74	-359.49	1368.3	-35.138	-451.37	1355.8	-108.81	-291.58	941.31	-426.28	-288.66	929.9	-179.85	-453.63	970.89	-348.75	-449.85	961.08	-271.14	-355.02	1027.4	-439.65	-344.53	994.37	-152.54	-250.59	718.75	-474.59	-257.6	765.63	-469.62	-293.86	738.25	-475.38	-195.13	641.52	-516.02	-157.31	517.94	-455.53	-157.36	517.92	-338.24	-344.38	706.66	-126.69	-371.24	740.06	-133.43	-333.14	750.48	-127.77	-345.48	617.5	-82.564	-318.85	465.31	-133.57	-303.66	462.33	-252.87	-202.23	453.76	-462.97	-177.79	426.07	-447.1	-218.28	408.92	-458.93	-244.61	329.75	-496.74	-396.81	207.43	-359.99	-410.15	201.7	-451.94	-351.84	325.17	-129.33	-357.88	362.88	-125.18	-321.97	350.5	-130.71	-351	229.15	-94.632	-405.65	66.008	-153.02	-386.6	74.234	-244.01	-466.11	220.11	-404.21	-398.92	172.58	-364.46	-415.5	168.73	-453.94	-321.81	116.05	-446.1	-357.89	102.78	-479.63	-462.72	59.267	-199.54	-378.02	40.34	-240.67	-389.66	40.559	-145.37	-285.96	43.633	-154.54	-321.59	28.236	-115.44
275	2.74	-402.49	1462.2	-220.64	-451.17	1186.8	-276.1	-271.61	1376.2	-216.43	-240.02	1206.8	-241.99	-325.43	1415.6	-402.48	-349.13	1368.6	-34.836	-442.25	1355.6	-107.31	-280.8	941.9	-425.41	-278.9	930.68	-178.78	-444.04	970.31	-348.46	-444.15	962.57	-269.74	-345.1	1027.1	-439.23	-335.28	994.39	-151.92	-235.92	721.11	-474.35	-243.97	767.95	-468.83	-279.49	739.75	-474.88	-178.17	645.73	-515.44	-138.17	523.01	-455.43	-138.87	522.23	-338.11	-337.35	706.99	-126.05	-363.11	740.5	-132.99	-326.01	750.29	-126.53	-340.03	617.79	-82.151	-316.17	465	-133.01	-301.05	462.65	-252.27	-182.16	458.13	-463.18	-157.4	430.48	-447.51	-197.87	413.7	-459.66	-224.17	334.86	-498.13	-373.01	208	-362.43	-386.91	203.91	-454.4	-350.34	325.03	-129.07	-356.08	362.65	-124.77	-321.05	349.9	-130.19	-350.47	229.05	-94.306	-405.5	65.993	-153.05	-386.28	74.257	-244.03	-443.02	219.88	-406.14	-375.23	173.45	-367.15	-392.01	170.17	-457.29	-296.86	120.23	-449.72	-332.43	107.1	-484.07	-462.61	59.573	-199.67	-377.44	40.338	-240.67	-389.69	40.562	-145.42	-286.13	43.447	-154.22	-321.69	28.13	-115.35
276	2.75	-394.2	1462	-219.99	-442.16	1185.9	-275.31	-263.14	1376.3	-216.32	-231.06	1206.8	-241.85	-317.78	1414.5	-402.55	-339.25	1369	-34.339	-433.11	1355.2	-106.09	-270.16	942.63	-423.7	-268.96	931.24	-177.69	-432.94	969.29	-348.26	-430.47	960.38	-270.67	-337	1028.1	-438.19	-326.12	994.34	-151.18	-221.21	723.84	-473.62	-230.32	769.86	-468.31	-265.2	741.63	-474.57	-162.02	649.43	-514.77	-119.84	527.73	-455.07	-121	526.19	-337.77	-330.01	707.08	-125.51	-355.33	741.15	-132.48	-318.69	750.81	-125.97	-334.34	617.96	-81.657	-313.48	464.58	-133.05	-297.18	461.48	-252.1	-162.96	462.52	-463.6	-137.61	435.25	-448.34	-178.08	417.81	-460.57	-203.43	339.17	-501.06	-349.24	207.94	-364.94	-363.86	205.34	-456.8	-349.01	324.72	-128.99	-354.16	362.78	-124.63	-319.28	349.65	-130.11	-350.13	229.12	-94.106	-405.46	66.05	-153.12	-386.07	74.373	-244.01	-420.15	218.79	-408.26	-350.67	173.33	-370.16	-367.92	171.74	-460.34	-271.76	124.16	-453.16	-306.81	110.44	-488.48	-462.56	59.83	-199.78	-377.33	40.038	-240.96	-389.76	40.624	-145.39	-286.14	43.369	-154.03	-321.85	28.103	-115.21
277	2.76	-385.72	1461.7	-219.61	-433.38	1185.4	-274.81	-254.48	1376.3	-216.49	-222.79	1206.7	-241.38	-309.99	1413.2	-402.72	-329.54	1369.2	-34.027	-424.13	1355	-104.99	-259.26	943.24	-422.58	-258.87	931.7	-176.65	-422.52	968.41	-348.15	-420.36	959.6	-270.68	-326.4	1027.8	-437.86	-316.98	994.28	-150.44	-206.83	725.83	-473.19	-216.73	772.01	-467.61	-251.1	743	-474.08	-145.89	652.95	-514.19	-101.82	532.23	-455.36	-103.58	529.56	-337.63	-322.73	707.09	-125.14	-347.16	741.56	-131.98	-310.2	750.28	-125.27	-328.89	618.15	-81.333	-310.52	464.31	-132.93	-293.52	460.79	-251.79	-144.31	466.42	-463.82	-118.45	439.36	-449.03	-158.81	421.61	-461.12	-184.04	343.74	-502.56	-326.34	207.63	-367.52	-340.64	206.03	-459.18	-347.43	324.64	-128.91	-352.19	362.2	-124.8	-317.07	349.79	-130.01	-349.7	229.13	-94.073	-405.08	66.129	-153.31	-385.85	74.461	-244.12	-397.04	217.1	-410.66	-326.73	172.82	-373.15	-343.93	172.27	-463.2	-246.6	127.21	-457	-281.06	113.4	-492.73	-462.47	60.14	-200.09	-377.55	39.941	-241.37	-389.78	40.777	-145.37	-286.19	43.161	-154.05	-322.1	28.105	-115.05
278	2.77	-377.28	1461.3	-219.49	-424.59	1184.6	-274.44	-245.88	1375.6	-216.7	-214.16	1206.3	-241.27	-301.99	1411.7	-403	-320.07	1369.4	-33.842	-415.02	1354.6	-104.2	-248.45	943.81	-421.5	-248.24	932.74	-175.32	-412.2	967.45	-348.14	-410.3	958.92	-270.73	-315.92	1027.6	-437.31	-307.54	993.79	-149.91	-192.56	727.85	-472.55	-203.18	773.95	-466.68	-236.41	744.98	-473.66	-130.28	656.41	-513.56	-84.986	535.94	-454.35	-86.59	532.56	-337.09	-315.21	707.1	-124.8	-338.95	741.83	-131.72	-301.26	750.03	-125.28	-323.05	618.28	-81.074	-307.61	463.65	-133.28	-289.85	460.05	-252.2	-126.36	469.78	-464.01	-99.883	442.75	-449.8	-139.94	424.61	-462.16	-164.48	347.6	-503.98	-302.79	206.12	-370.04	-317.23	205.48	-461.76	-345.94	324.8	-128.99	-350.51	361.97	-125.45	-315.64	349.36	-130.06	-349.02	229.1	-94.287	-405.43	66.695	-153.54	-385.69	74.528	-244.33	-374.17	214.53	-412.44	-302.33	171.24	-376.01	-319.76	171.78	-465.87	-221.1	129.46	-460.66	-254.99	115.86	-496.6	-462.46	60.706	-200.4	-377.42	39.849	-241.6	-389.78	40.819	-145.63	-286.17	43.146	-153.92	-322.42	28.234	-114.98
279	2.78	-368.67	1460.7	-219.58	-415.72	1183.4	-274.1	-237.15	1375	-216.8	-205.51	1205.6	-241.09	-293.7	1409.9	-403.56	-310.63	1369.5	-33.765	-406.19	1354	-103.59	-237.7	944.06	-420.36	-237.89	933	-174.37	-401.59	966.28	-348.11	-399.87	957.86	-270.71	-305.67	1027.5	-437.04	-297.79	992.88	-149.42	-178.57	729.66	-472	-189.85	775.54	-465.79	-223.15	745.35	-473.47	-115.16	659.56	-512.95	-68.469	539.33	-454.17	-70.254	535.11	-337.04	-307.48	707.08	-124.66	-330.54	742.26	-131.44	-292.73	749.67	-125.18	-317.2	618.4	-81.19	-304.62	463.32	-133.65	-286.57	459.84	-251.82	-108.89	472.65	-464.42	-81.776	446.07	-450.47	-121.6	427.49	-462.82	-144.69	350.14	-505.95	-279.05	203.73	-372.63	-293.58	204.61	-464.08	-344.1	324.4	-129.71	-348.63	361.77	-126.05	-313.95	348.84	-130.28	-348.25	229.06	-94.586	-405.31	66.994	-153.87	-385.44	74.448	-244.64	-350.55	210.67	-414.65	-276.82	168.72	-379.2	-295.15	170.59	-468.9	-194.97	132.16	-464.35	-228.58	117.56	-500.51	-462.27	61.108	-201.05	-377.54	39.735	-241.97	-389.83	41.095	-145.75	-286.21	43.193	-153.96	-322.18	28.008	-115.29
280	2.79	-359.98	1460	-219.89	-406.81	1182.3	-273.66	-228.37	1374.5	-217.16	-196.85	1205	-240.76	-285.14	1407.8	-404.32	-301.55	1369.6	-33.836	-397.31	1353.5	-103.28	-226.9	944.4	-419.34	-227.5	932.62	-173.79	-391.2	965.06	-347.96	-389.12	956.63	-270.69	-295.2	1027	-436.8	-287.83	992.63	-148.67	-164.95	731.19	-471.54	-176.8	777.57	-464.55	-209.78	746.83	-473.18	-100.35	662.21	-512.51	-52.637	542.26	-454.05	-54.495	537.38	-336.9	-299.41	707.03	-124.75	-321.67	742.46	-131.35	-284.06	749.53	-125.19	-310.72	618.63	-81.258	-301.54	463.16	-134.31	-283.24	458.76	-252.93	-92.047	474.8	-464.78	-63.974	449.04	-451.38	-103.45	428.74	-463.55	-124.89	351.95	-507.9	-254.73	200.36	-375.09	-269.58	202.33	-466.28	-342.58	324.46	-130.44	-346.85	362.54	-126.39	-312.15	348.77	-131	-347.48	229.24	-95.046	-405.31	67.253	-154.3	-385.2	74.39	-245.08	-326.71	205.48	-416.99	-252.25	165.41	-382.08	-270.13	168.35	-471.64	-168.7	133.38	-467.55	-201.61	118.52	-504.51	-462.16	61.509	-201.72	-377.58	39.583	-242.28	-389.85	41.264	-146.11	-286.07	42.976	-154.12	-322.18	27.989	-115.45
281	2.8	-351.2	1459.3	-220.36	-397.4	1181	-274.02	-219.5	1373.7	-217.78	-188.04	1204.4	-240.49	-276.45	1405.6	-404.99	-292.47	1369.6	-34.016	-388.16	1352.7	-103.3	-216.3	944.44	-418.56	-216.83	932.67	-173.23	-380.7	963.68	-347.66	-378.65	955.31	-270.63	-285.13	1026.4	-436.54	-277.48	991.55	-148.26	-151.71	732.47	-471.32	-164.08	778.76	-463.79	-196.1	748.06	-473.28	-86.175	664.61	-511.98	-37.578	544.7	-454.07	-39.209	539.23	-336.7	-290.78	706.75	-125	-312.68	742.82	-131.07	-274.09	748.79	-125.71	-303.81	618.75	-81.492	-298.59	462.81	-135.02	-280.1	458.23	-253.58	-75.512	476.04	-465.03	-46.761	450.29	-451.71	-85.845	430.05	-464.25	-105.28	352.89	-509.42	-230.56	196.38	-377.34	-245.28	198.99	-468.65	-341.05	324.71	-131.34	-345.14	362.63	-127.35	-310.36	348.89	-131.47	-346.87	229.2	-96.212	-405.22	67.542	-154.89	-384.83	74.296	-245.59	-302.24	199.62	-419.19	-227	161.62	-384.54	-244.56	165.15	-474.38	-141.96	133.94	-470.68	-174.19	118.66	-507.67	-462.1	62.138	-202.18	-377.7	39.75	-242.49	-389.89	41.514	-146.48	-286.07	43.054	-154.29	-322.31	28.001	-115.66
282	2.81	-342.26	1458.5	-221.06	-388.97	1180	-273.06	-210.6	1372.6	-218	-179.25	1203.1	-240.38	-267.57	1403.2	-405.77	-283.64	1369.6	-34.093	-379.45	1352.3	-103.21	-205.86	944.42	-418.06	-205.99	932.21	-172.92	-370.21	962.16	-347.34	-367.54	953.83	-270.37	-274.3	1025.7	-436	-267.05	990.65	-147.77	-138.89	733.54	-471.07	-151.73	779.4	-463.7	-183.65	748.34	-473.19	-72.605	666.28	-511.72	-23.102	546.47	-454.08	-24.831	540.67	-336.7	-281.89	706.6	-125.17	-302.91	742.78	-131.12	-264.88	748.33	-126.19	-296.1	618.26	-82.085	-295.42	462.67	-135.81	-277.58	457.93	-254.6	-59.435	476.68	-465.42	-29.914	452.07	-452.31	-68.3	430.05	-464.91	-85.699	352.94	-510.2	-205.84	191.66	-379.63	-220.33	194.91	-470.98	-339.7	325.29	-132.02	-342.87	362.91	-128.15	-308.52	348.84	-132.12	-346.26	229.87	-96.628	-405.13	67.952	-155.53	-384.46	74.211	-246.19	-277.59	192.66	-421.51	-201.27	157.22	-387.06	-218.41	161.16	-476.95	-114.72	133.52	-473.36	-146.17	118.1	-511.2	-461.95	62.716	-202.94	-376.9	39.604	-242.6	-389.82	41.679	-146.98	-286.11	43.066	-154.42	-322.36	28.016	-115.97
283	2.82	-333.24	1457.6	-221.92	-379.78	1178.6	-272.63	-201.52	1372	-218.57	-170.18	1202.3	-240.1	-258.55	1400.7	-406.6	-274.52	1369.4	-34.654	-370.51	1351.9	-103.44	-195.43	943.7	-418.5	-194.73	931.8	-172.67	-359.61	960.52	-346.89	-356.91	952.29	-270.07	-264.7	1024.7	-435.88	-256.35	989.74	-147.38	-126.48	733.92	-471	-139.69	779.94	-463.49	-171.02	748.99	-473.32	-59.703	667.27	-511.19	-9.251	547.62	-454.1	-11.223	541.68	-336.8	-273.11	706.59	-125.02	-293.17	742.85	-130.74	-254.52	747.52	-126.49	-287.87	617.84	-82.41	-292.2	462.84	-136.54	-274.28	457.06	-255.7	-43.831	476.75	-465.9	-13.257	453.16	-452.97	-51.125	429.65	-465.46	-65.901	352.31	-511.53	-180.65	185.94	-381.89	-195.17	189.6	-472.95	-337.89	325.17	-133.08	-340.84	363.33	-129.25	-306.81	348.78	-133.14	-345.07	229.74	-97.421	-405.04	68.387	-156.14	-384	74.178	-246.96	-252.36	185.02	-424.04	-174.48	151.72	-389.39	-191.75	156.06	-479.51	-87.308	132.97	-475.08	-117.65	116.76	-513.81	-461.65	63.022	-204	-376.78	39.559	-243.11	-389.66	41.532	-147.82	-286.19	42.949	-154.61	-322.64	28.323	-116.14
284	2.83	-324.13	1456.5	-222.91	-370.32	1177.1	-272.86	-192.39	1370.7	-219.01	-161.06	1201.1	-240.01	-249.46	1398	-407.53	-265.59	1369.5	-35.277	-361.5	1351.4	-104.01	-185.01	942.99	-418.95	-183.33	931.18	-172.75	-349.07	958.62	-346.42	-345.65	950.75	-269.72	-255.37	1023.8	-435.86	-245.67	988.62	-147.1	-114.66	734.25	-470.65	-128.1	779.97	-463.89	-160.01	747.77	-473.16	-47.121	668.01	-511.03	3.9513	548.19	-454.19	1.6741	541.69	-336.93	-263.12	705.68	-125.54	-282.87	742.48	-130.55	-244.34	746.59	-127.17	-279.46	617.47	-82.742	-288.51	462.46	-137.8	-271.95	457.21	-256.44	-28.546	475.9	-466.43	2.6662	453.23	-453.15	-34.232	428.79	-466.12	-45.851	350.7	-512.21	-155.24	179.81	-383.82	-169.4	183.79	-475.07	-335.79	325.3	-134.26	-338.99	363.7	-130.59	-304.95	348.68	-134.45	-344.66	230.59	-97.988	-404.98	69.066	-156.66	-383.56	74.201	-247.53	-226.76	176.45	-426.28	-147.71	145.66	-391.48	-164.6	150.43	-481.84	-59.45	131.23	-476.92	-88.578	114.68	-515.42	-461.42	63.719	-204.85	-376.48	39.36	-243.85	-389.65	41.947	-148.3	-286.29	43.132	-154.79	-322.64	28.387	-116.46
